<svg xmlns="http://www.w3.org/2000/svg" fill="#FF4C29" viewBox="0 0 800 300">
  <path filter="url(#dilate)" stroke="#FF4C29" style="fill-rule:evenodd; clip-rule:evenodd; stroke-linejoin:round; stroke-miterlimit:2" d="M 79.091 18.382 L 28.567 13.048 L 28.567 13.144 C 30.851 14.105 31.511 16.857 29.773 18.608 L 79.091 18.608 L 79.091 18.382 Z M 29.773 78.358 L 29.773 18.608 C 27.859 19.972 25.561 19.37 24.705 16.98 L 24.589 16.98 L 29.547 78.358 L 29.773 78.358 Z M 57.297 27.926 C 57.259 27.252 55.765 27.58 55.271 28.052 C 55.044 28.266 54.947 28.544 54.813 28.822 C 54.832 28.87 54.959 28.758 55.231 28.677 C 55.677 28.541 56.461 28.686 56.703 28.394 C 56.869 28.21 57.08 28.032 57.297 27.926 M 79.091 24.217 L 79.091 24.22 L 53.868 24.217 L 53.868 27.702 C 54.465 27.385 54.948 27.106 55.588 26.924 C 56.016 26.802 56.476 26.672 56.927 26.718 C 57.587 26.786 57.829 27.229 57.759 27.689 C 58.34 27.378 59.436 27.205 59.963 27.686 C 60.468 28.15 60.572 28.905 60.404 29.534 C 59.815 28.905 59.059 28.744 58.26 29.136 C 57.661 29.429 57.163 29.945 56.891 30.549 C 57.148 30.845 57.981 30.606 58.265 30.46 C 58.58 30.296 58.857 30.034 59.209 29.65 C 59.165 30.221 59.097 30.749 58.891 31.03 C 58.499 31.565 58.107 31.673 57.44 31.906 C 56.919 32.085 56.392 32.337 55.875 32.862 C 55.429 33.456 55.316 34.482 55.452 35.353 C 55.604 36.313 55.957 37.325 56.255 38.318 C 56.552 39.31 56.793 40.289 56.724 41.184 C 58.255 41.432 60.713 39.726 61.576 39.029 C 62.533 38.258 63.513 37.361 63.988 36.486 C 64.373 35.776 64.488 34.328 63.761 33.197 C 62.388 31.058 63.137 27.608 66.048 26.728 C 67.835 26.208 70.289 26.706 71.392 28.697 C 72.465 30.637 72.713 32.821 72.681 35.112 C 72.631 38.618 72.492 40.801 73.144 43.417 C 73.461 44.698 74.063 45.882 75.011 46.969 C 74.264 47.853 73.017 47.246 72.061 46.428 C 70.643 45.217 69.431 42.482 68.652 38.086 L 68.501 38.63 C 68.467 41.278 68.811 43.302 69.383 45.668 C 69.963 48.058 70.805 49.452 72.855 51.02 C 71.729 52.036 70.592 51.597 69.6 50.841 C 67.627 49.338 66.779 47.632 65.972 44.182 L 65.824 44.376 C 65.652 46.4 65.864 48.405 66.512 50.224 C 67.135 51.964 68.336 53.629 69.883 54.893 C 68.832 55.844 67.685 55.216 66.732 54.524 C 65.384 53.548 63.373 51.661 62.731 47.96 L 62.563 48.105 C 62.493 50.222 62.689 52.128 63.148 53.764 C 63.615 55.437 65.032 57.424 66.455 58.381 C 65.271 59.384 64.199 58.768 63.331 58.101 C 61.025 56.326 59.575 53.821 59.044 50.493 L 58.839 50.597 C 58.591 54.214 58.607 58.18 61.845 60.493 L 60.56 61.302 L 61.311 62.581 C 61.643 63.144 64.639 61.606 65.859 62.581 C 66.349 62.973 66.667 63.602 66.312 64.4 L 66.239 64.366 C 66.207 63.804 65.921 63.509 65.548 63.353 C 65.004 63.128 64.175 63.188 63.555 63.897 C 62.352 64.712 61.504 64.133 60.881 64.946 C 60.513 65.429 60.521 65.854 60.677 66.328 L 60.616 66.365 C 58.956 65.498 60.507 63.893 60.201 63.357 L 59.393 61.941 L 58.095 62.728 C 57.977 61.778 56.5 56.737 55.608 56.396 C 55.376 56.729 55.388 57.612 55.353 58.218 C 55.307 59.07 55.697 59.689 55.611 60.877 C 55.573 61.393 55.313 62.104 54.903 62.814 C 55.309 63.08 55.495 63.498 55.484 63.985 C 55.473 64.528 55.229 65.16 55.06 65.674 C 54.843 66.337 54.652 66.84 54.903 66.84 C 55.612 66.469 56.28 66.404 56.853 66.569 C 57.684 66.808 58.211 67.6 58.96 67.985 C 59.827 68.432 60.565 68.354 61.557 68.732 C 60.204 69.246 60.009 70.63 58.173 70.346 C 57.067 70.176 55.409 68.085 55.108 68.257 C 54.896 68.878 55.033 69.598 55.151 70.573 C 55.209 71.058 55.267 71.608 55.272 72.241 C 55.279 72.872 55.231 73.586 55.093 74.398 C 54.908 75.485 54.516 76.876 53.883 78.358 L 53.899 78.358 C 78.703 70.068 78.884 35.345 79.091 24.217 M 67.803 30.42 C 68.312 30.42 68.729 29.98 68.729 29.44 C 68.729 28.902 68.313 28.461 67.803 28.461 C 67.292 28.461 66.876 28.902 66.876 29.44 C 66.876 29.98 67.292 30.42 67.803 30.42 M 66.099 32.142 C 66.609 32.142 67.027 31.701 67.027 31.162 C 67.027 30.624 66.611 30.184 66.099 30.184 C 65.589 30.184 65.172 30.624 65.172 31.162 C 65.173 31.701 65.589 32.142 66.099 32.142 M 69.244 32.424 C 69.753 32.424 70.172 31.985 70.172 31.444 C 70.172 30.905 69.756 30.465 69.244 30.465 C 68.733 30.465 68.316 30.905 68.316 31.444 C 68.317 31.985 68.733 32.424 69.244 32.424 M 67.759 30.94 L 67.759 30.938 L 67.608 30.937 C 66.925 37.828 61.341 45.196 53.875 45.436 L 53.875 48.037 C 63.099 47.454 67.573 40.232 67.759 30.94 M 50.44 27.926 C 50.659 28.032 50.868 28.209 51.035 28.394 C 51.277 28.686 52.06 28.542 52.507 28.677 C 52.777 28.758 52.907 28.87 52.924 28.822 C 52.788 28.544 52.693 28.266 52.467 28.05 C 51.975 27.58 50.48 27.25 50.44 27.926 M 53.856 78.358 L 53.863 27.705 C 53.267 27.388 52.784 27.108 52.144 26.926 C 51.716 26.805 51.256 26.674 50.804 26.721 C 50.145 26.788 49.901 27.23 49.975 27.69 C 49.391 27.381 48.295 27.208 47.768 27.688 C 47.264 28.153 47.16 28.908 47.328 29.536 C 47.915 28.908 48.673 28.745 49.471 29.136 C 50.069 29.429 50.568 29.945 50.841 30.549 C 50.584 30.848 49.751 30.61 49.467 30.462 C 49.151 30.298 48.875 30.037 48.523 29.653 C 48.565 30.222 48.635 30.75 48.841 31.032 C 49.233 31.566 49.625 31.676 50.292 31.908 C 50.813 32.088 51.34 32.341 51.856 32.864 C 52.303 33.456 52.415 34.484 52.279 35.356 C 52.127 36.314 51.775 37.326 51.477 38.32 C 51.18 39.314 50.937 40.29 51.008 41.186 C 49.479 41.432 47.019 39.728 46.156 39.032 C 45.199 38.26 44.217 37.361 43.744 36.488 C 43.357 35.777 43.244 34.329 43.971 33.198 C 45.344 31.062 44.593 27.609 41.683 26.729 C 39.897 26.209 37.441 26.708 36.34 28.7 C 35.265 30.64 35.017 32.824 35.051 35.113 C 35.1 38.621 35.24 40.802 34.588 43.418 C 34.269 44.701 33.669 45.885 32.721 46.972 C 33.467 47.854 34.713 47.249 35.671 46.432 C 37.089 45.221 38.3 42.486 39.079 38.089 L 39.231 38.633 C 39.265 41.281 38.921 43.305 38.348 45.669 C 37.771 48.06 36.927 49.453 34.877 51.02 C 36.004 52.036 37.14 51.597 38.133 50.842 C 40.107 49.34 40.953 47.633 41.763 44.184 L 41.911 44.377 C 42.081 46.4 41.871 48.406 41.221 50.225 C 40.6 51.965 39.399 53.63 37.852 54.896 C 38.903 55.845 40.049 55.217 41.003 54.525 C 42.351 53.549 44.361 51.66 45.004 47.961 L 45.173 48.105 C 45.241 50.224 45.044 52.128 44.587 53.765 C 44.12 55.437 42.704 57.425 41.28 58.381 C 42.464 59.384 43.537 58.768 44.404 58.101 C 46.709 56.328 48.16 53.822 48.689 50.493 L 48.896 50.598 C 49.144 54.214 49.128 58.181 45.888 60.493 L 47.175 61.302 L 46.423 62.58 C 46.091 63.142 43.093 61.608 41.873 62.58 C 41.383 62.973 41.068 63.602 41.423 64.4 L 41.495 64.366 C 41.528 63.804 41.812 63.509 42.187 63.353 C 42.729 63.126 43.559 63.188 44.179 63.897 C 45.383 64.712 46.231 64.133 46.853 64.946 C 47.221 65.429 47.215 65.854 47.059 66.328 L 47.12 66.365 C 48.78 65.498 47.229 63.893 47.535 63.357 L 48.343 61.941 L 49.64 62.728 C 49.757 61.778 51.237 56.737 52.129 56.396 C 52.361 56.729 52.349 57.612 52.383 58.218 C 52.431 59.068 52.04 59.689 52.127 60.877 C 52.163 61.393 52.423 62.104 52.835 62.814 C 52.428 63.078 52.244 63.497 52.253 63.985 C 52.263 64.528 52.508 65.16 52.677 65.674 C 52.895 66.337 53.084 66.84 52.833 66.84 C 52.124 66.47 51.457 66.404 50.884 66.568 C 50.053 66.808 49.528 67.6 48.776 67.985 C 47.911 68.432 47.173 68.354 46.181 68.732 C 47.533 69.246 47.728 70.63 49.565 70.346 C 50.671 70.174 52.328 68.085 52.629 68.257 C 52.84 68.878 52.704 69.598 52.588 70.573 C 52.528 71.058 52.472 71.608 52.467 72.24 C 52.46 72.872 52.508 73.588 52.645 74.398 C 52.831 75.482 53.212 76.878 53.841 78.358 L 53.856 78.358 Z M 39.937 30.42 C 40.447 30.42 40.863 29.98 40.863 29.44 C 40.863 28.902 40.445 28.461 39.937 28.461 C 39.425 28.461 39.008 28.902 39.008 29.44 C 39.008 29.98 39.425 30.42 39.937 30.42 M 41.639 32.141 C 42.149 32.141 42.565 31.701 42.565 31.161 C 42.565 30.622 42.149 30.181 41.639 30.181 C 41.129 30.181 40.712 30.622 40.712 31.161 C 40.712 31.701 41.129 32.141 41.639 32.141 M 38.495 32.424 C 39.005 32.424 39.421 31.985 39.423 31.444 C 39.423 30.905 39.005 30.465 38.495 30.465 C 37.983 30.465 37.568 30.905 37.568 31.444 C 37.568 31.985 37.985 32.424 38.495 32.424 M 39.98 30.94 C 40.165 40.23 44.64 47.454 53.864 48.037 L 53.864 45.436 C 46.397 45.196 40.813 37.828 40.132 30.937 L 39.98 30.938 L 39.98 30.94 Z M 141.084 39.33 C 140.996 39.817 140.952 40.529 140.952 41.465 L 140.74 41.606 C 140.299 41.362 139.877 41.241 139.472 41.241 C 138.485 41.241 137.776 41.697 137.344 42.617 C 136.913 43.536 136.697 44.969 136.697 46.917 C 136.697 49.296 136.74 51.186 136.829 52.592 C 136.495 52.518 136.116 52.48 135.692 52.48 C 135.375 52.48 135.041 52.509 134.689 52.565 C 134.776 50.354 134.821 47.3 134.821 43.404 C 134.821 41.697 134.776 40.341 134.689 39.33 C 135.041 39.404 135.42 39.441 135.827 39.441 C 136.231 39.441 136.601 39.404 136.936 39.33 C 136.829 40.228 136.777 41.261 136.777 42.42 C 137.728 40.265 138.828 39.188 140.08 39.188 C 140.275 39.188 140.609 39.236 141.084 39.33 M 154.881 45.96 C 154.881 48.021 154.288 49.684 153.109 50.948 C 151.929 52.214 150.431 52.845 148.617 52.845 C 146.784 52.845 145.284 52.208 144.111 50.934 C 142.937 49.66 142.353 48.004 142.353 45.96 C 142.353 43.938 142.948 42.286 144.136 41 C 145.325 39.717 146.82 39.078 148.617 39.078 C 150.467 39.078 151.972 39.713 153.136 40.988 C 154.299 42.261 154.881 43.918 154.881 45.96 M 152.608 46.129 C 152.608 41.99 151.268 39.92 148.589 39.92 C 145.947 39.92 144.624 41.924 144.624 45.933 C 144.624 49.978 145.956 52.002 148.617 52.002 C 151.277 52.002 152.608 50.046 152.608 46.129 M 167.355 40.2 C 167.072 40.892 166.835 41.697 166.64 42.617 C 165.899 40.856 164.703 39.973 163.047 39.973 C 161.655 39.973 160.571 40.496 159.795 41.536 C 159.019 42.576 158.632 44.049 158.632 45.96 C 158.632 47.794 159.051 49.244 159.888 50.302 C 160.724 51.361 161.839 51.888 163.231 51.888 C 164.64 51.888 165.972 51.216 167.221 49.866 C 167.185 50.39 167.171 50.737 167.171 50.905 C 167.171 51.168 167.177 51.356 167.196 51.468 C 166.067 52.405 164.561 52.873 162.676 52.873 C 160.827 52.873 159.337 52.245 158.211 50.992 C 157.081 49.734 156.519 48.068 156.519 45.989 C 156.519 43.89 157.113 42.216 158.303 40.958 C 159.492 39.704 161.073 39.077 163.047 39.077 C 164.561 39.077 165.999 39.45 167.355 40.2 M 173.671 38.712 C 173.229 38.99 172.595 39.422 171.767 40.004 C 171.767 46.429 171.811 50.626 171.9 52.592 C 171.512 52.536 171.132 52.508 170.763 52.508 C 170.409 52.508 170.059 52.536 169.705 52.592 C 169.776 50.418 169.813 48.048 169.813 45.482 L 169.813 41.409 C 169.581 41.596 168.973 42.11 167.988 42.953 L 167.988 41.493 C 168.587 41.137 169.204 40.716 169.839 40.229 L 169.839 39.496 C 169.839 36.126 169.793 33.468 169.705 31.518 C 170.164 31.556 170.516 31.574 170.763 31.574 C 171.027 31.574 171.404 31.556 171.9 31.518 C 171.811 33.521 171.767 35.856 171.767 38.513 L 171.767 38.825 C 172.453 38.3 173.089 37.765 173.671 37.22 L 173.671 38.712 Z M 185.905 52.141 C 184.956 52.441 184.232 52.593 183.739 52.593 C 182.929 52.593 182.445 52.049 182.285 50.962 C 181.159 52.217 179.844 52.845 178.348 52.845 C 175.916 52.845 174.701 51.692 174.701 49.389 C 174.701 47.421 175.723 46.204 177.767 45.736 C 178.735 45.529 179.713 45.325 180.7 45.116 C 181.528 44.93 182.083 44.706 182.364 44.445 L 182.364 43.853 C 182.364 42.598 182.14 41.669 181.692 41.073 C 181.241 40.47 180.489 40.172 179.432 40.172 C 177.987 40.172 176.849 40.838 176.023 42.166 L 175.811 42.166 L 175.863 40.68 C 177.044 39.63 178.463 39.105 180.119 39.105 C 181.599 39.105 182.664 39.482 183.317 40.242 C 183.968 41 184.293 42.194 184.293 43.826 L 184.293 44.162 L 184.189 49.754 C 184.189 50.39 184.232 50.824 184.321 51.046 C 184.479 51.422 184.823 51.609 185.352 51.609 C 185.545 51.609 185.696 51.598 185.8 51.581 L 185.905 52.141 Z M 182.313 49.249 L 182.313 45.624 C 180.232 45.998 178.849 46.376 178.164 46.746 C 177.3 47.216 176.868 47.976 176.868 49.022 C 176.868 50.802 177.652 51.692 179.221 51.692 C 180.207 51.692 181.088 51.282 181.863 50.457 C 182.164 50.138 182.313 49.736 182.313 49.249 M 205.728 39.33 C 202.909 46.073 201.235 50.493 200.707 52.592 C 200.441 52.536 200.176 52.509 199.915 52.509 C 199.667 52.509 199.412 52.536 199.147 52.592 C 198.971 51.43 197.887 48.049 195.896 42.449 C 194.275 46.588 193.165 49.969 192.565 52.592 C 192.407 52.556 192.163 52.536 191.827 52.536 C 191.492 52.536 191.235 52.556 191.061 52.592 C 190.601 50.493 189.069 46.073 186.46 39.33 C 186.815 39.404 187.201 39.441 187.624 39.441 C 188.064 39.441 188.459 39.404 188.813 39.33 C 189.324 41.521 190.425 44.949 192.119 49.614 C 193.385 46.616 194.54 43.189 195.579 39.33 C 195.843 39.385 196.108 39.412 196.372 39.412 C 196.619 39.412 196.875 39.385 197.139 39.33 C 198.301 43.938 199.403 47.358 200.441 49.586 C 201.375 47.544 202.6 44.124 204.116 39.33 C 204.504 39.368 204.777 39.385 204.935 39.385 C 205.111 39.385 205.376 39.368 205.728 39.33 M 230.096 33.4 C 230.008 35.816 229.961 37.521 229.961 38.514 L 229.961 39.245 C 229.961 42.298 229.919 44.416 229.829 45.596 C 229.673 47.376 229.355 48.716 228.879 49.614 C 227.664 51.842 225.513 52.958 222.431 52.958 C 219.804 52.958 217.895 52.277 216.696 50.921 C 215.499 49.564 214.897 47.422 214.897 44.5 C 214.897 44.386 214.911 43.685 214.939 42.39 C 214.964 41.1 214.979 39.872 214.979 38.712 C 214.979 37.193 214.952 35.425 214.897 33.4 C 215.245 33.476 215.629 33.514 216.048 33.514 C 216.517 33.514 216.927 33.466 217.277 33.372 L 217.172 43.598 C 217.172 45.024 217.232 46.102 217.356 46.832 C 217.532 48.03 217.912 49.005 218.495 49.753 C 219.483 51.026 220.932 51.664 222.841 51.664 C 224.765 51.664 226.224 51.01 227.212 49.697 C 227.777 48.949 228.147 47.918 228.323 46.608 C 228.447 45.728 228.508 44.257 228.508 42.193 C 228.508 39.03 228.475 36.1 228.403 33.4 C 228.667 33.476 228.941 33.514 229.221 33.514 C 229.541 33.514 229.829 33.476 230.096 33.4 M 244.261 52.592 C 243.855 52.5 243.495 52.452 243.177 52.452 C 242.859 52.452 242.5 52.5 242.092 52.592 C 242.199 50.626 242.252 47.976 242.252 44.641 C 242.252 41.868 241.247 40.48 239.24 40.48 C 238.199 40.48 237.379 40.884 236.783 41.69 C 236.181 42.496 235.884 43.957 235.884 46.073 L 235.884 47.34 C 235.884 49.884 235.909 51.636 235.961 52.592 C 235.557 52.5 235.187 52.452 234.851 52.452 C 234.535 52.452 234.173 52.5 233.769 52.592 C 233.839 51.545 233.873 49.913 233.873 47.702 L 233.873 45.709 C 233.873 42.785 233.839 40.658 233.769 39.33 C 234.104 39.405 234.464 39.442 234.851 39.442 C 235.256 39.442 235.6 39.405 235.884 39.33 C 235.845 40.005 235.831 40.48 235.831 40.761 C 235.831 40.874 235.839 41.044 235.857 41.269 L 235.857 41.773 C 236.859 39.958 238.241 39.049 240.007 39.049 C 242.824 39.049 244.233 40.725 244.233 44.078 C 244.233 44.546 244.227 45.236 244.208 46.145 C 244.191 47.05 244.18 47.721 244.18 48.153 C 244.18 49.541 244.208 51.021 244.261 52.592 M 250.339 34.44 C 250.339 34.832 250.207 35.17 249.944 35.453 C 249.677 35.733 249.361 35.873 248.992 35.873 C 248.621 35.873 248.304 35.733 248.04 35.453 C 247.776 35.17 247.644 34.832 247.644 34.44 C 247.644 34.046 247.776 33.716 248.04 33.442 C 248.304 33.172 248.621 33.034 248.992 33.034 C 249.361 33.034 249.677 33.172 249.944 33.442 C 250.207 33.716 250.339 34.046 250.339 34.44 M 250.075 52.592 C 249.685 52.5 249.325 52.452 248.992 52.452 C 248.673 52.452 248.311 52.5 247.907 52.592 C 247.996 50.025 248.04 47.702 248.04 45.624 C 248.04 43.712 247.996 41.614 247.907 39.33 C 248.243 39.405 248.603 39.442 248.992 39.442 C 249.413 39.442 249.776 39.405 250.075 39.33 C 249.987 41.634 249.944 43.732 249.944 45.624 C 249.944 47.702 249.987 50.025 250.075 52.592 M 263.817 39.33 C 260.961 46.053 259.22 50.474 258.584 52.592 C 258.391 52.556 258.119 52.536 257.767 52.536 C 257.432 52.536 257.184 52.556 257.024 52.592 C 256.303 50.118 254.603 45.697 251.924 39.33 C 252.276 39.404 252.673 39.441 253.113 39.441 C 253.571 39.441 253.985 39.404 254.356 39.33 C 254.939 41.634 256.232 45.185 258.24 49.978 C 259.932 46.493 261.236 42.945 262.153 39.33 C 262.417 39.404 262.699 39.441 262.999 39.441 C 263.315 39.441 263.588 39.404 263.817 39.33 M 275.681 45.174 L 275.681 45.484 C 275.665 45.616 275.659 45.718 275.659 45.792 L 266.564 45.792 L 266.564 45.878 C 266.564 49.776 268.045 51.72 271.005 51.72 C 272.52 51.72 273.877 51.094 275.075 49.838 C 275.039 50.326 275.021 50.681 275.021 50.905 L 275.021 51.244 C 273.648 52.31 272.152 52.845 270.531 52.845 C 268.679 52.845 267.176 52.208 266.023 50.933 C 264.869 49.661 264.291 48.012 264.291 45.989 C 264.291 43.89 264.845 42.21 265.956 40.945 C 267.067 39.68 268.537 39.049 270.371 39.049 C 272.063 39.049 273.369 39.578 274.295 40.636 C 275.22 41.694 275.681 43.206 275.681 45.174 M 273.568 44.808 L 273.568 44.328 C 273.568 42.934 273.275 41.846 272.683 41.065 C 272.095 40.284 271.285 39.892 270.264 39.892 C 269.261 39.892 268.413 40.325 267.728 41.189 C 267.041 42.114 266.672 43.321 266.619 44.808 L 273.568 44.808 Z M 284.537 39.33 C 284.449 39.817 284.404 40.529 284.404 41.465 L 284.193 41.606 C 283.752 41.362 283.331 41.241 282.925 41.241 C 281.937 41.241 281.228 41.697 280.796 42.617 C 280.364 43.536 280.148 44.969 280.148 46.917 C 280.148 49.296 280.193 51.186 280.283 52.592 C 279.948 52.518 279.568 52.48 279.145 52.48 C 278.827 52.48 278.493 52.509 278.14 52.565 C 278.229 50.354 278.272 47.3 278.272 43.404 C 278.272 41.697 278.229 40.341 278.14 39.33 C 278.493 39.404 278.872 39.441 279.277 39.441 C 279.68 39.441 280.052 39.404 280.388 39.33 C 280.283 40.228 280.228 41.261 280.228 42.42 C 281.179 40.265 282.283 39.188 283.531 39.188 C 283.727 39.188 284.06 39.236 284.537 39.33 M 293.072 48.434 C 293.072 49.708 292.64 50.761 291.779 51.593 C 290.913 52.429 289.785 52.845 288.395 52.845 C 287.021 52.845 285.885 52.508 284.985 51.833 C 285.249 51.122 285.461 50.4 285.619 49.67 C 286.484 51.076 287.56 51.777 288.844 51.777 C 289.639 51.777 290.264 51.549 290.721 51.09 C 291.179 50.633 291.408 50.013 291.408 49.224 C 291.408 48.105 290.711 47.338 289.32 46.928 L 288.105 46.56 C 287.1 46.264 286.375 45.832 285.925 45.273 C 285.475 44.713 285.249 43.938 285.249 42.946 C 285.249 41.824 285.619 40.9 286.36 40.169 C 287.1 39.441 288.079 39.078 289.292 39.078 C 290.563 39.078 291.664 39.385 292.597 40.004 C 292.333 40.585 292.148 41.174 292.044 41.773 C 291.039 40.54 290.015 39.918 288.976 39.918 C 288.307 39.918 287.767 40.138 287.351 40.58 C 286.939 41.021 286.729 41.585 286.729 42.28 C 286.729 43.441 287.4 44.228 288.737 44.641 L 290.536 45.204 C 292.229 45.726 293.072 46.805 293.072 48.434 M 297.881 34.44 C 297.881 34.832 297.749 35.17 297.487 35.453 C 297.223 35.733 296.904 35.873 296.536 35.873 C 296.167 35.873 295.847 35.733 295.584 35.453 C 295.317 35.17 295.187 34.832 295.187 34.44 C 295.187 34.046 295.317 33.716 295.584 33.442 C 295.847 33.172 296.167 33.034 296.536 33.034 C 296.904 33.034 297.223 33.172 297.487 33.442 C 297.749 33.716 297.881 34.046 297.881 34.44 M 297.619 52.592 C 297.229 52.5 296.868 52.452 296.536 52.452 C 296.217 52.452 295.855 52.5 295.452 52.592 C 295.539 50.025 295.584 47.702 295.584 45.624 C 295.584 43.712 295.539 41.614 295.452 39.33 C 295.785 39.405 296.148 39.442 296.536 39.442 C 296.957 39.442 297.32 39.405 297.619 39.33 C 297.531 41.634 297.487 43.732 297.487 45.624 C 297.487 47.702 297.531 50.025 297.619 52.592 M 318.708 39.33 C 318.179 40.434 317.341 42.364 316.197 45.116 L 312.655 53.632 C 311.369 56.722 310.673 58.521 310.356 59.852 C 310.073 59.797 309.775 59.768 309.459 59.768 C 309.159 59.768 308.849 59.797 308.532 59.852 C 309.413 58.28 310.277 56.6 311.335 53.997 L 311.943 52.509 L 310.833 49.416 C 310.308 47.962 308.945 44.63 306.747 39.418 C 306.704 39.674 306.681 39.954 306.681 40.258 L 306.681 40.481 C 305.731 40.425 304.923 40.396 304.251 40.396 C 303.811 40.396 303.496 40.408 303.299 40.425 L 303.248 41.829 C 303.248 42.374 303.229 43.365 303.196 44.808 C 303.161 46.252 303.141 47.432 303.141 48.349 C 303.141 49.605 303.308 50.508 303.644 51.061 C 303.979 51.613 304.552 51.889 305.361 51.889 C 305.82 51.889 306.436 51.692 307.212 51.3 L 307.396 51.917 C 306.499 52.556 305.537 52.873 304.517 52.873 C 303.299 52.873 302.437 52.569 301.927 51.96 C 301.415 51.352 301.16 50.372 301.16 49.022 C 301.16 48.742 301.18 47.754 301.227 46.058 C 301.269 44.364 301.291 42.804 301.291 41.38 L 301.291 40.425 L 301.003 40.425 C 300.56 40.425 300.101 40.454 299.627 40.51 C 299.661 40.172 299.68 39.929 299.68 39.78 L 299.68 39.554 C 299.661 39.441 299.655 39.369 299.655 39.33 C 300.216 39.385 300.781 39.413 301.345 39.413 L 301.345 38.486 C 301.345 37.888 301.327 37.102 301.291 36.126 C 302.12 35.977 302.825 35.742 303.407 35.424 C 303.352 36.625 303.327 37.362 303.327 37.644 L 303.327 39.497 C 304.283 39.497 305.411 39.442 306.712 39.334 L 306.709 39.33 L 306.729 39.333 L 306.763 39.33 L 306.761 39.34 C 307.12 39.408 307.535 39.441 308.004 39.441 C 308.479 39.441 308.901 39.404 309.273 39.33 C 309.731 41.036 310.673 43.752 312.101 47.478 L 313.025 49.893 L 313.977 47.561 C 315.316 44.265 316.303 41.521 316.937 39.33 C 317.203 39.404 317.499 39.441 317.836 39.441 C 318.153 39.441 318.444 39.404 318.708 39.33 M 120.971 76.012 C 120.971 78.072 120.38 79.736 119.2 80.997 C 118.02 82.264 116.521 82.896 114.707 82.896 C 112.875 82.896 111.373 82.258 110.203 80.985 C 109.029 79.71 108.445 78.052 108.445 76.012 C 108.445 73.99 109.039 72.336 110.228 71.052 C 111.416 69.768 112.911 69.128 114.707 69.128 C 116.557 69.128 118.063 69.765 119.228 71.038 C 120.391 72.312 120.971 73.97 120.971 76.012 M 118.699 76.18 C 118.699 72.041 117.359 69.968 114.68 69.968 C 112.039 69.968 110.717 71.974 110.717 75.982 C 110.717 80.029 112.048 82.054 114.707 82.054 C 117.368 82.054 118.699 80.096 118.699 76.18 M 129.348 61.597 L 129.084 63.786 C 128.644 63.565 128.14 63.449 127.577 63.449 C 126.079 63.449 125.332 64.322 125.332 66.065 C 125.332 66.832 125.4 68.002 125.544 69.577 L 126.124 69.577 C 126.389 69.596 126.581 69.605 126.707 69.605 C 127.076 69.605 127.596 69.588 128.265 69.548 L 128.265 70.702 C 128.16 70.702 127.271 70.653 125.597 70.56 C 125.597 76.761 125.667 80.788 125.807 82.644 C 125.4 82.55 125.015 82.502 124.645 82.502 C 124.309 82.502 123.921 82.55 123.481 82.644 C 123.604 81.462 123.667 78.614 123.667 74.101 L 123.667 70.56 C 123.261 70.56 122.671 70.58 121.896 70.616 L 121.896 69.548 C 122.425 69.588 122.795 69.605 123.007 69.605 C 123.093 69.605 123.217 69.596 123.375 69.577 L 123.72 69.577 C 123.735 67.066 124.223 65.089 125.173 63.649 C 126.088 62.264 127.305 61.569 128.82 61.569 C 129.051 61.569 129.225 61.578 129.348 61.597 M 146.789 76.948 C 146.789 78.762 146.219 80.228 145.072 81.34 C 143.928 82.452 142.404 83.01 140.501 83.01 C 138.739 83.01 137.259 82.513 136.063 81.518 C 136.379 80.525 136.572 79.533 136.643 78.54 C 137.469 80.769 138.924 81.882 141.003 81.882 C 142.131 81.882 143.041 81.514 143.739 80.773 C 144.435 80.034 144.784 79.026 144.784 77.754 C 144.784 76.853 144.561 76.134 144.121 75.59 C 143.733 75.102 143.064 74.644 142.113 74.213 L 139.973 73.26 C 137.628 72.209 136.457 70.634 136.457 68.537 C 136.457 66.945 136.972 65.641 138.005 64.633 C 139.033 63.62 140.379 63.116 142.033 63.116 C 143.427 63.116 144.765 63.461 146.053 64.153 C 145.785 64.734 145.54 65.456 145.312 66.318 C 144.377 64.893 143.16 64.181 141.664 64.181 C 140.695 64.181 139.924 64.496 139.351 65.122 C 138.78 65.748 138.492 66.593 138.492 67.661 C 138.492 69.118 139.381 70.261 141.163 71.084 L 143.303 72.065 C 144.537 72.626 145.427 73.281 145.971 74.029 C 146.517 74.778 146.789 75.75 146.789 76.948 M 159.16 70.252 C 158.877 70.944 158.639 71.749 158.448 72.668 C 157.705 70.908 156.508 70.025 154.852 70.025 C 153.459 70.025 152.377 70.548 151.601 71.588 C 150.825 72.626 150.439 74.101 150.439 76.012 C 150.439 77.846 150.856 79.294 151.693 80.354 C 152.529 81.41 153.644 81.94 155.036 81.94 C 156.447 81.94 157.777 81.266 159.027 79.917 C 158.991 80.441 158.975 80.788 158.975 80.957 C 158.975 81.218 158.983 81.408 159.001 81.518 C 157.873 82.454 156.365 82.925 154.483 82.925 C 152.632 82.925 151.143 82.296 150.016 81.041 C 148.888 79.785 148.324 78.12 148.324 76.04 C 148.324 73.941 148.919 72.265 150.108 71.01 C 151.296 69.756 152.879 69.128 154.852 69.128 C 156.365 69.128 157.803 69.501 159.16 70.252 M 163.731 64.493 C 163.731 64.884 163.6 65.22 163.336 65.502 C 163.071 65.781 162.753 65.924 162.384 65.924 C 162.013 65.924 161.695 65.781 161.432 65.502 C 161.169 65.22 161.036 64.884 161.036 64.493 C 161.036 64.1 161.169 63.766 161.432 63.493 C 161.695 63.224 162.013 63.086 162.384 63.086 C 162.753 63.086 163.071 63.224 163.336 63.493 C 163.6 63.766 163.731 64.1 163.731 64.493 M 163.467 82.642 C 163.079 82.549 162.719 82.501 162.384 82.501 C 162.065 82.501 161.704 82.549 161.3 82.642 C 161.388 80.077 161.432 77.753 161.432 75.674 C 161.432 73.764 161.388 71.664 161.3 69.38 C 161.633 69.454 161.996 69.493 162.384 69.493 C 162.807 69.493 163.168 69.454 163.467 69.38 C 163.379 71.686 163.336 73.781 163.336 75.674 C 163.336 77.753 163.379 80.077 163.467 82.642 M 177.5 75.225 L 177.5 75.532 C 177.483 75.664 177.475 75.769 177.475 75.844 L 168.383 75.844 L 168.383 75.926 C 168.383 79.825 169.863 81.772 172.823 81.772 C 174.34 81.772 175.695 81.146 176.893 79.888 C 176.857 80.376 176.84 80.732 176.84 80.956 L 176.84 81.294 C 175.464 82.362 173.968 82.896 172.345 82.896 C 170.497 82.896 168.995 82.258 167.841 80.985 C 166.685 79.71 166.109 78.062 166.109 76.038 C 166.109 73.941 166.664 72.261 167.775 70.996 C 168.885 69.732 170.355 69.101 172.188 69.101 C 173.88 69.101 175.187 69.628 176.113 70.686 C 177.037 71.745 177.5 73.258 177.5 75.225 M 175.387 74.86 L 175.387 74.38 C 175.387 72.986 175.089 71.897 174.5 71.116 C 173.911 70.333 173.105 69.941 172.083 69.941 C 171.079 69.941 170.231 70.377 169.545 71.24 C 168.859 72.165 168.489 73.37 168.436 74.86 L 175.387 74.86 Z M 190.476 82.642 C 190.071 82.549 189.709 82.501 189.395 82.501 C 189.075 82.501 188.715 82.549 188.308 82.642 C 188.415 80.677 188.468 78.026 188.468 74.689 C 188.468 71.92 187.463 70.53 185.455 70.53 C 184.416 70.53 183.595 70.936 182.996 71.74 C 182.396 72.546 182.099 74.008 182.099 76.122 L 182.099 77.389 C 182.099 79.937 182.125 81.686 182.177 82.642 C 181.773 82.549 181.401 82.501 181.065 82.501 C 180.751 82.501 180.389 82.549 179.984 82.642 C 180.053 81.593 180.089 79.964 180.089 77.753 L 180.089 75.76 C 180.089 72.836 180.053 70.709 179.984 69.38 C 180.32 69.454 180.68 69.493 181.065 69.493 C 181.473 69.493 181.817 69.454 182.099 69.38 C 182.063 70.056 182.045 70.53 182.045 70.813 C 182.045 70.925 182.053 71.094 182.073 71.318 L 182.073 71.826 C 183.076 70.008 184.459 69.101 186.223 69.101 C 189.04 69.101 190.451 70.774 190.451 74.128 C 190.451 74.597 190.441 75.286 190.423 76.196 C 190.407 77.101 190.397 77.773 190.397 78.204 C 190.397 79.59 190.423 81.07 190.476 82.642 M 203.689 70.252 C 203.408 70.944 203.172 71.749 202.975 72.668 C 202.237 70.908 201.039 70.025 199.384 70.025 C 197.991 70.025 196.907 70.548 196.132 71.588 C 195.357 72.626 194.969 74.101 194.969 76.012 C 194.969 77.846 195.388 79.294 196.227 80.354 C 197.063 81.41 198.175 81.94 199.568 81.94 C 200.977 81.94 202.307 81.266 203.559 79.917 C 203.524 80.441 203.505 80.788 203.505 80.957 C 203.505 81.218 203.513 81.408 203.532 81.518 C 202.403 82.454 200.897 82.925 199.012 82.925 C 197.163 82.925 195.675 82.296 194.545 81.041 C 193.419 79.785 192.853 78.12 192.853 76.04 C 192.853 73.941 193.451 72.265 194.639 71.01 C 195.829 69.756 197.409 69.128 199.384 69.128 C 200.897 69.128 202.335 69.501 203.689 70.252 M 215.98 75.225 L 215.98 75.532 C 215.961 75.664 215.953 75.769 215.953 75.844 L 206.861 75.844 L 206.861 75.926 C 206.861 79.825 208.341 81.772 211.303 81.772 C 212.819 81.772 214.175 81.146 215.373 79.888 C 215.337 80.376 215.32 80.732 215.32 80.956 L 215.32 81.294 C 213.944 82.362 212.448 82.896 210.825 82.896 C 208.976 82.896 207.473 82.258 206.321 80.985 C 205.165 79.71 204.589 78.062 204.589 76.038 C 204.589 73.941 205.144 72.261 206.255 70.996 C 207.364 69.732 208.836 69.101 210.669 69.101 C 212.359 69.101 213.667 69.628 214.592 70.686 C 215.516 71.745 215.98 73.258 215.98 75.225 M 213.865 74.86 L 213.865 74.38 C 213.865 72.986 213.569 71.897 212.98 71.116 C 212.391 70.333 211.583 69.941 210.561 69.941 C 209.559 69.941 208.712 70.377 208.024 71.24 C 207.339 72.165 206.967 73.37 206.913 74.86 L 213.865 74.86 Z M 235.351 82.193 C 234.401 82.493 233.677 82.642 233.184 82.642 C 232.375 82.642 231.889 82.1 231.731 81.013 C 230.604 82.268 229.289 82.896 227.793 82.896 C 225.361 82.896 224.144 81.744 224.144 79.438 C 224.144 77.472 225.167 76.254 227.212 75.786 C 228.179 75.581 229.157 75.373 230.144 75.168 C 230.973 74.981 231.528 74.758 231.808 74.496 L 231.808 73.904 C 231.808 72.649 231.585 71.721 231.137 71.122 C 230.687 70.521 229.932 70.222 228.877 70.222 C 227.432 70.222 226.293 70.888 225.467 72.217 L 225.255 72.217 L 225.308 70.73 C 226.488 69.68 227.909 69.154 229.563 69.154 C 231.044 69.154 232.111 69.534 232.761 70.293 C 233.412 71.05 233.737 72.245 233.737 73.876 L 233.737 74.213 L 233.633 79.805 C 233.633 80.441 233.677 80.873 233.765 81.098 C 233.923 81.473 234.268 81.658 234.796 81.658 C 234.992 81.658 235.14 81.65 235.245 81.632 L 235.351 82.193 Z M 231.759 79.298 L 231.759 75.674 C 229.677 76.048 228.295 76.425 227.609 76.798 C 226.744 77.265 226.313 78.026 226.313 79.074 C 226.313 80.854 227.096 81.744 228.665 81.744 C 229.652 81.744 230.533 81.332 231.308 80.506 C 231.608 80.189 231.759 79.785 231.759 79.298 M 247.904 82.642 C 247.5 82.549 247.137 82.501 246.821 82.501 C 246.505 82.501 246.144 82.549 245.737 82.642 C 245.843 80.677 245.896 78.026 245.896 74.689 C 245.896 71.92 244.891 70.53 242.884 70.53 C 241.843 70.53 241.023 70.936 240.424 71.74 C 239.827 72.546 239.528 74.008 239.528 76.122 L 239.528 77.389 C 239.528 79.937 239.553 81.686 239.608 82.642 C 239.2 82.549 238.831 82.501 238.496 82.501 C 238.179 82.501 237.816 82.549 237.412 82.642 C 237.481 81.593 237.519 79.964 237.519 77.753 L 237.519 75.76 C 237.519 72.836 237.481 70.709 237.412 69.38 C 237.748 69.454 238.111 69.493 238.496 69.493 C 238.901 69.493 239.245 69.454 239.528 69.38 C 239.492 70.056 239.475 70.53 239.475 70.813 C 239.475 70.925 239.483 71.094 239.501 71.318 L 239.501 71.826 C 240.507 70.008 241.889 69.101 243.649 69.101 C 246.468 69.101 247.879 70.774 247.879 74.128 C 247.879 74.597 247.869 75.286 247.851 76.196 C 247.835 77.101 247.827 77.773 247.827 78.204 C 247.827 79.59 247.851 81.07 247.904 82.642 M 262.308 82.642 C 261.901 82.549 261.533 82.501 261.199 82.501 C 260.863 82.501 260.493 82.549 260.089 82.642 C 260.123 81.932 260.141 81.378 260.141 80.985 C 260.141 80.517 260.132 80.162 260.115 79.916 C 259.145 81.902 257.637 82.894 255.596 82.894 C 254.008 82.894 252.728 82.293 251.749 81.084 C 250.772 79.877 250.284 78.26 250.284 76.236 C 250.284 74.101 250.807 72.382 251.857 71.08 C 252.903 69.776 254.247 69.128 255.885 69.128 C 257.7 69.128 259.093 69.989 260.061 71.712 C 260.061 70.774 260.068 69.746 260.089 68.622 L 260.089 66.656 C 260.089 64.893 260.061 63.196 260.007 61.568 C 260.467 61.698 260.844 61.766 261.144 61.766 C 261.463 61.766 261.833 61.698 262.255 61.568 C 262.184 63.8 262.149 66.806 262.149 70.588 C 262.149 75.029 262.204 79.046 262.308 82.642 M 260.115 75.618 C 260.115 73.874 259.788 72.537 259.137 71.6 C 258.485 70.662 257.576 70.194 256.415 70.194 C 255.18 70.194 254.217 70.709 253.521 71.74 C 252.825 72.773 252.477 74.242 252.477 76.152 C 252.477 77.969 252.797 79.369 253.441 80.354 C 254.085 81.337 254.979 81.828 256.124 81.828 C 257.393 81.828 258.373 81.3 259.071 80.24 C 259.765 79.184 260.115 77.642 260.115 75.618 M 284.244 65.108 C 284.191 64.826 284.165 64.548 284.165 64.265 C 284.165 63.969 284.191 63.696 284.244 63.449 C 281.793 63.508 279.452 63.536 277.213 63.536 C 275.012 63.536 272.905 63.508 270.896 63.449 C 270.933 63.828 270.952 64.116 270.952 64.322 C 270.952 64.51 270.933 64.772 270.896 65.108 C 272.041 64.884 273.663 64.772 275.76 64.772 L 276.475 64.772 L 276.475 69.464 C 276.475 73.098 276.429 77.492 276.341 82.642 C 276.643 82.606 277.063 82.588 277.611 82.588 C 278.156 82.588 278.555 82.606 278.799 82.642 C 278.712 78.333 278.668 74.476 278.668 71.068 C 278.668 68.424 278.712 66.326 278.799 64.772 L 279.567 64.772 C 281.505 64.772 283.063 64.884 284.244 65.108 M 293.521 75.225 L 293.521 75.532 C 293.503 75.664 293.493 75.769 293.493 75.844 L 284.403 75.844 L 284.403 75.926 C 284.403 79.825 285.883 81.772 288.841 81.772 C 290.359 81.772 291.713 81.146 292.912 79.888 C 292.879 80.376 292.857 80.732 292.857 80.956 L 292.857 81.294 C 291.485 82.362 289.987 82.896 288.365 82.896 C 286.516 82.896 285.012 82.258 283.86 80.985 C 282.704 79.71 282.129 78.062 282.129 76.038 C 282.129 73.941 282.684 72.261 283.793 70.996 C 284.903 69.732 286.377 69.101 288.207 69.101 C 289.9 69.101 291.208 69.628 292.133 70.686 C 293.059 71.745 293.521 73.258 293.521 75.225 M 291.405 74.86 L 291.405 74.38 C 291.405 72.986 291.112 71.897 290.52 71.116 C 289.929 70.333 289.125 69.941 288.103 69.941 C 287.099 69.941 286.252 70.377 285.564 71.24 C 284.879 72.165 284.508 73.37 284.453 74.86 L 291.405 74.86 Z M 305.783 70.252 C 305.503 70.944 305.263 71.749 305.068 72.668 C 304.331 70.908 303.132 70.025 301.475 70.025 C 300.084 70.025 299 70.548 298.227 71.588 C 297.448 72.626 297.063 74.101 297.063 76.012 C 297.063 77.846 297.48 79.294 298.319 80.354 C 299.155 81.41 300.268 81.94 301.66 81.94 C 303.069 81.94 304.399 81.266 305.651 79.917 C 305.616 80.441 305.599 80.788 305.599 80.957 C 305.599 81.218 305.605 81.408 305.624 81.518 C 304.496 82.454 302.991 82.925 301.105 82.925 C 299.255 82.925 297.767 82.296 296.639 81.041 C 295.511 79.785 294.948 78.12 294.948 76.04 C 294.948 73.941 295.54 72.265 296.731 71.01 C 297.92 69.756 299.503 69.128 301.475 69.128 C 302.991 69.128 304.427 69.501 305.783 70.252 M 318.205 82.642 C 317.816 82.549 317.456 82.501 317.121 82.501 C 316.805 82.501 316.444 82.549 316.039 82.642 C 316.124 79.216 316.171 76.724 316.171 75.168 C 316.171 73.558 315.94 72.382 315.48 71.641 C 315.017 70.904 314.243 70.53 313.145 70.53 C 311.853 70.53 310.907 71.15 310.304 72.386 C 309.952 73.118 309.775 74.774 309.775 77.36 L 309.775 79.354 C 309.775 80.029 309.8 81.126 309.853 82.642 C 309.453 82.549 309.088 82.501 308.757 82.501 C 308.444 82.501 308.096 82.549 307.712 82.642 C 307.799 78.409 307.844 74.896 307.844 72.106 C 307.844 68.77 307.799 65.26 307.712 61.568 C 308.233 61.644 308.6 61.681 308.809 61.681 C 309.071 61.681 309.428 61.644 309.881 61.568 C 309.808 63.668 309.775 65.754 309.775 67.834 C 309.775 68.602 309.792 69.886 309.828 71.686 C 310.904 69.981 312.275 69.128 313.936 69.128 C 316.764 69.128 318.179 70.756 318.179 74.017 C 318.179 74.373 318.167 75.032 318.137 75.998 C 318.112 76.962 318.1 77.745 318.1 78.344 C 318.1 78.701 318.136 80.133 318.205 82.642 M 332.133 82.642 C 331.729 82.549 331.367 82.501 331.051 82.501 C 330.732 82.501 330.371 82.549 329.968 82.642 C 330.071 80.677 330.124 78.026 330.124 74.689 C 330.124 71.92 329.119 70.53 327.112 70.53 C 326.072 70.53 325.252 70.936 324.653 71.74 C 324.055 72.546 323.756 74.008 323.756 76.122 L 323.756 77.389 C 323.756 79.937 323.781 81.686 323.833 82.642 C 323.428 82.549 323.059 82.501 322.723 82.501 C 322.407 82.501 322.044 82.549 321.639 82.642 C 321.711 81.593 321.747 79.964 321.747 77.753 L 321.747 75.76 C 321.747 72.836 321.711 70.709 321.639 69.38 C 321.975 69.454 322.336 69.493 322.723 69.493 C 323.129 69.493 323.472 69.454 323.756 69.38 C 323.723 70.056 323.701 70.53 323.701 70.813 C 323.701 70.925 323.709 71.094 323.729 71.318 L 323.729 71.826 C 324.733 70.008 326.115 69.101 327.877 69.101 C 330.695 69.101 332.108 70.774 332.108 74.128 C 332.108 74.597 332.097 75.286 332.079 76.196 C 332.063 77.101 332.053 77.773 332.053 78.204 C 332.053 79.59 332.079 81.07 332.133 82.642 M 347.064 76.012 C 347.064 78.072 346.476 79.736 345.292 80.997 C 344.111 82.264 342.616 82.896 340.803 82.896 C 338.969 82.896 337.464 82.258 336.295 80.985 C 335.123 79.71 334.539 78.052 334.539 76.012 C 334.539 73.99 335.131 72.336 336.323 71.052 C 337.513 69.768 339.005 69.128 340.803 69.128 C 342.652 69.128 344.159 69.765 345.32 71.038 C 346.481 72.312 347.064 73.97 347.064 76.012 M 344.791 76.18 C 344.791 72.041 343.452 69.968 340.776 69.968 C 338.131 69.968 336.809 71.974 336.809 75.982 C 336.809 80.029 338.14 82.054 340.803 82.054 C 343.463 82.054 344.791 80.096 344.791 76.18 M 351.687 82.642 C 351.301 82.588 350.925 82.558 350.552 82.558 C 350.203 82.558 349.848 82.588 349.497 82.642 C 349.564 81.388 349.601 78.653 349.601 74.438 L 349.601 67.076 C 349.601 64.436 349.564 62.598 349.497 61.568 C 349.955 61.608 350.305 61.625 350.552 61.625 C 350.817 61.625 351.195 61.608 351.687 61.568 C 351.603 63.292 351.559 66.176 351.559 70.222 C 351.559 76.46 351.603 80.601 351.687 82.642 M 366.649 76.012 C 366.649 78.072 366.059 79.736 364.879 80.997 C 363.696 82.264 362.197 82.896 360.388 82.896 C 358.553 82.896 357.051 82.258 355.877 80.985 C 354.704 79.71 354.121 78.052 354.121 76.012 C 354.121 73.99 354.715 72.336 355.905 71.052 C 357.095 69.768 358.588 69.128 360.388 69.128 C 362.233 69.128 363.741 69.765 364.904 71.038 C 366.064 72.312 366.649 73.97 366.649 76.012 M 364.375 76.18 C 364.375 72.041 363.039 69.968 360.356 69.968 C 357.715 69.968 356.393 71.974 356.393 75.982 C 356.393 80.029 357.723 82.054 360.388 82.054 C 363.047 82.054 364.375 80.096 364.375 76.18 M 377.512 85.593 C 377.512 84.373 377.115 83.56 376.321 83.148 C 375.651 82.812 374.381 82.642 372.516 82.642 C 372.357 82.642 372.084 82.661 371.695 82.698 C 370.147 83.222 369.369 84.318 369.369 85.986 C 369.369 87.036 369.704 87.889 370.377 88.544 C 371.043 89.2 371.925 89.526 373.016 89.526 C 374.34 89.526 375.417 89.158 376.255 88.418 C 377.089 87.678 377.512 86.736 377.512 85.593 M 375.977 73.568 C 375.977 71.094 375.065 69.858 373.24 69.858 C 372.363 69.858 371.655 70.198 371.111 70.884 C 370.567 71.568 370.296 72.462 370.296 73.568 C 370.296 74.745 370.559 75.66 371.084 76.306 C 371.611 76.953 372.327 77.276 373.24 77.276 C 375.065 77.276 375.977 76.04 375.977 73.568 M 390.936 69.38 C 390.408 70.484 389.569 72.414 388.427 75.168 L 384.884 83.681 C 383.597 86.773 382.797 88.984 382.477 90.313 C 382.196 90.257 381.897 90.229 381.58 90.229 C 381.283 90.229 380.972 90.257 380.656 90.313 C 381.536 88.741 382.503 86.65 383.563 84.048 L 384.169 82.56 L 383.061 79.466 C 382.545 78.042 381.223 74.805 379.095 69.757 L 379.095 70.39 C 378.516 70.336 377.969 70.308 377.457 70.308 L 376.928 70.308 C 377.615 71.284 377.959 72.35 377.959 73.51 C 377.959 74.914 377.533 76.014 376.679 76.81 C 375.823 77.608 374.656 78.006 373.175 78.006 C 372.948 78.006 372.671 77.989 372.341 77.949 C 372.016 77.913 371.809 77.894 371.721 77.894 C 370.895 77.894 370.479 78.334 370.479 79.216 C 370.479 80.244 371.165 80.76 372.544 80.76 C 372.524 80.76 372.683 80.752 373.016 80.732 L 374.021 80.732 C 375.889 80.732 377.22 80.985 378.011 81.489 C 378.895 82.072 379.333 83.092 379.333 84.554 C 379.333 86.276 378.716 87.678 377.481 88.754 C 376.249 89.83 374.619 90.372 372.595 90.372 C 371.115 90.372 369.948 90 369.092 89.261 C 368.236 88.52 367.811 87.541 367.811 86.325 C 367.811 84.489 368.789 83.222 370.744 82.53 C 369.405 82.213 368.733 81.424 368.733 80.17 C 368.733 79.178 369.433 78.306 370.823 77.556 C 369.063 76.96 368.181 75.702 368.181 73.79 C 368.181 72.368 368.651 71.225 369.595 70.362 C 370.536 69.502 371.82 69.07 373.44 69.07 C 373.916 69.07 374.495 69.122 375.169 69.224 C 375.847 69.329 376.303 69.38 376.531 69.38 C 376.989 69.38 377.844 69.304 379.095 69.154 L 379.095 69.409 C 379.429 69.465 379.805 69.493 380.229 69.493 C 380.708 69.493 381.131 69.456 381.503 69.38 C 381.956 71.085 382.9 73.802 384.329 77.528 L 385.253 79.945 L 386.203 77.613 C 387.544 74.316 388.531 71.573 389.164 69.38 C 389.429 69.456 389.729 69.493 390.063 69.493 C 390.383 69.493 390.673 69.456 390.936 69.38 M 133.659 33.4 C 132.532 36.922 130.521 43.318 127.633 52.592 C 127.351 52.517 127.043 52.48 126.709 52.48 C 126.339 52.48 126.019 52.526 125.757 52.62 C 124.452 47.845 122.832 42.598 120.895 36.886 L 115.951 52.592 C 115.599 52.5 115.291 52.452 115.025 52.452 C 114.763 52.452 114.453 52.5 114.101 52.592 C 112.744 47.817 110.86 41.418 108.447 33.4 C 108.815 33.476 109.237 33.514 109.713 33.514 C 110.191 33.514 110.613 33.476 110.983 33.4 C 112.428 39.077 113.952 44.582 115.555 49.922 C 117.389 44.582 119.044 39.077 120.524 33.4 C 120.787 33.476 121.068 33.514 121.368 33.514 C 121.685 33.514 121.977 33.476 122.241 33.4 C 123.792 38.796 125.484 44.21 127.316 49.642 C 129.06 44.321 130.593 38.906 131.913 33.4 C 132.179 33.476 132.46 33.514 132.76 33.514 C 133.093 33.514 133.396 33.476 133.659 33.4 M 92.655 6.517 L 94.289 8.15 L 94.289 88.154 L 14.292 88.154 L 12.66 86.522 L 92.655 86.522 L 92.655 6.517 Z"></path>
</svg>