<?xml version="1.0" standalone="no"?>
<svg version="1.0" xmlns="http://www.w3.org/2000/svg"
 width="686.000000pt" height="158.000000pt" viewBox="0 0 3582.000000 620.000000"
 preserveAspectRatio="xMidYMid meet">

<g transform="translate(0.000000,620.000000) scale(0.100000,-0.100000)"
fill="#EBF0F8" stroke="none">
<path d="M15925 5405 c-38 -7 -92 -22 -120 -33 -27 -11 -105 -39 -172 -63
-108 -36 -140 -53 -259 -135 -139 -96 -224 -176 -246 -229 -6 -16 -33 -61 -58
-100 -69 -102 -95 -159 -119 -260 -12 -49 -30 -117 -38 -150 -12 -42 -18 -117
-21 -246 -3 -171 -2 -190 17 -235 11 -27 32 -100 45 -162 22 -98 32 -122 76
-186 27 -41 54 -77 59 -81 6 -3 35 -44 66 -90 48 -73 149 -175 174 -175 4 0
45 -32 92 -71 91 -77 222 -146 409 -218 58 -22 139 -54 180 -71 41 -17 134
-51 206 -75 72 -25 186 -67 254 -95 68 -27 128 -50 132 -50 5 0 47 -18 94 -40
77 -37 99 -55 243 -198 88 -86 166 -172 176 -190 13 -28 16 -67 17 -228 0
-131 -3 -199 -11 -207 -6 -6 -11 -25 -11 -42 0 -60 -95 -215 -132 -215 -5 0
-60 -24 -122 -54 -100 -48 -122 -55 -197 -61 -46 -3 -112 -13 -146 -22 -54
-14 -73 -14 -130 -3 -38 6 -100 16 -138 20 -39 4 -90 13 -115 20 -51 14 -182
83 -201 106 -7 9 -36 31 -65 49 -74 47 -162 168 -239 327 -64 132 -64 134 -75
257 -6 69 -12 126 -13 127 -2 3 -608 6 -685 5 l-22 -1 2 -767 3 -768 353 -3
c193 -1 353 -1 354 0 0 2 4 70 7 152 l6 150 35 -30 c19 -17 64 -48 99 -68 35
-20 89 -57 121 -81 80 -61 174 -111 255 -134 39 -10 88 -26 110 -35 33 -12 98
-15 373 -16 l333 0 132 46 c275 96 332 131 537 335 150 148 158 159 212 264
31 61 65 144 77 185 67 248 65 232 69 471 4 215 -6 357 -27 383 -5 6 -19 43
-31 81 -30 91 -50 130 -121 235 -32 48 -59 92 -59 98 0 24 -214 233 -274 269
-34 19 -83 52 -111 73 -54 41 -375 207 -490 254 -38 16 -104 42 -145 59 -41
16 -102 42 -135 57 -33 15 -81 34 -105 41 -25 7 -116 41 -203 75 -115 46 -188
82 -275 138 -143 92 -167 117 -224 225 -42 82 -43 85 -43 181 0 93 2 100 40
176 27 53 64 104 113 155 115 122 122 125 349 171 l198 40 90 -17 c116 -23
207 -51 269 -82 70 -36 271 -234 302 -298 14 -27 31 -61 40 -75 11 -19 14 -54
13 -150 -1 -69 -1 -152 0 -185 l1 -61 355 -3 355 -3 0 710 0 710 -23 4 c-13 3
-157 2 -321 0 l-298 -5 -9 -24 c-5 -13 -9 -80 -9 -148 0 -106 -2 -124 -15
-119 -8 4 -12 10 -9 15 3 5 0 9 -5 9 -6 0 -11 9 -11 20 0 12 -7 34 -15 49 -20
40 -119 128 -175 156 -26 13 -69 40 -95 61 -32 24 -73 43 -115 54 -36 9 -78
25 -92 34 -23 15 -62 18 -315 20 -203 3 -309 0 -358 -9z"/>
<path d="M619 5370 c-57 -10 -98 -31 -171 -88 -48 -37 -62 -56 -90 -121 l-33
-76 0 -2025 1 -2025 28 -85 c26 -78 34 -91 97 -151 68 -65 69 -66 136 -72 87
-9 4086 -9 4107 -1 9 3 16 11 16 17 0 6 7 18 15 27 8 9 18 30 21 48 6 30 -5
43 -376 409 -210 208 -392 383 -403 390 -29 16 -72 16 -105 -1 -21 -11 -127
-20 -187 -16 -5 0 -28 2 -50 3 -32 2 -134 41 -225 87 -8 4 -32 31 -52 61 -20
30 -42 59 -47 66 -6 6 -20 30 -32 53 -19 36 -21 53 -17 148 4 96 8 113 36 167
18 33 32 65 32 72 0 24 109 122 166 149 32 16 70 36 83 46 19 14 43 18 122 18
104 0 96 2 229 -65 44 -22 110 -84 110 -103 0 -8 17 -30 37 -50 35 -33 38 -40
44 -108 3 -40 2 -96 -3 -126 -5 -29 -11 -87 -14 -128 -11 -136 -21 -122 376
-516 193 -192 361 -353 373 -357 25 -9 137 -6 143 5 9 14 4 4190 -5 4206 -12
23 -99 95 -147 124 l-39 23 -825 0 c-668 0 -832 -3 -863 -14 -29 -10 -120 -95
-370 -345 -183 -183 -406 -404 -495 -491 -90 -88 -173 -177 -184 -199 -19 -37
-19 -41 -4 -73 9 -19 16 -45 16 -59 0 -13 6 -39 13 -57 21 -51 5 -196 -30
-266 -26 -53 -164 -201 -188 -201 -5 0 -30 -10 -55 -23 -48 -23 -143 -28 -240
-13 -44 8 -146 52 -156 68 -3 4 -12 8 -21 8 -37 0 -101 70 -142 154 -38 78
-41 91 -41 166 0 45 5 91 11 102 6 11 13 34 16 51 7 46 61 137 108 184 25 24
82 61 136 87 89 44 97 46 179 46 63 -1 95 -6 125 -20 26 -13 62 -19 104 -20
l65 0 378 378 c316 316 378 382 378 405 0 20 -15 44 -51 82 l-51 54 -971 -1
c-535 -1 -993 -4 -1018 -8z m3257 -915 c49 -24 105 -59 125 -77 51 -45 109
-125 109 -149 0 -11 9 -37 20 -59 24 -47 27 -162 6 -212 -8 -18 -23 -53 -34
-78 -25 -57 -160 -188 -234 -227 l-53 -28 -194 3 c-169 2 -198 0 -235 -16 -27
-13 -94 -72 -196 -175 -85 -86 -229 -232 -320 -324 -92 -93 -302 -301 -468
-463 -167 -162 -312 -310 -324 -328 -20 -33 -20 -33 -2 -193 19 -173 15 -217
-29 -304 -28 -55 -128 -157 -185 -187 -116 -63 -272 -57 -425 15 -119 56 -152
95 -198 232 -42 124 -29 272 31 371 31 49 139 134 219 173 98 46 152 49 311
17 122 -24 125 -25 153 -7 32 20 1313 1296 1327 1322 11 20 -3 181 -19 222
-24 60 -3 208 42 293 27 51 128 141 187 165 30 12 66 31 79 41 19 14 42 18
120 18 95 0 99 -1 187 -45z"/>
<path d="M3609 4243 c-33 -5 -59 -33 -92 -98 -21 -41 -25 -62 -23 -115 2 -36
9 -79 17 -95 17 -37 92 -75 163 -82 44 -5 61 -1 114 26 54 27 64 37 86 83 13
29 27 75 31 101 l6 48 -58 60 c-48 49 -67 63 -103 70 -46 8 -95 9 -141 2z"/>
<path d="M1548 2189 c-42 -16 -67 -66 -74 -150 -6 -64 -3 -80 16 -116 34 -67
77 -87 174 -84 55 1 91 8 110 19 39 23 96 134 96 186 0 34 -7 46 -58 98 l-59
58 -89 -1 c-49 0 -101 -5 -116 -10z"/>
<path d="M5924 5286 c-4 -9 0 -63 9 -119 50 -342 95 -641 138 -917 27 -173 56
-367 64 -429 8 -63 22 -153 30 -200 25 -142 34 -200 50 -331 9 -68 20 -129 25
-135 5 -6 12 -42 15 -80 13 -152 39 -322 53 -350 8 -16 21 -91 28 -170 22
-243 62 -499 79 -511 11 -9 15 -31 15 -95 0 -112 28 -311 46 -325 10 -8 14
-35 14 -90 1 -115 23 -254 44 -266 13 -7 16 -26 16 -96 0 -94 16 -245 31 -302
5 -19 22 -44 37 -55 26 -19 43 -20 397 -20 l370 0 7 50 c4 27 13 54 21 60 9 7
19 46 27 105 6 52 18 124 27 160 8 36 25 119 38 185 34 172 78 392 119 598 20
97 45 232 57 300 20 117 58 227 79 227 6 0 11 10 11 23 1 20 2 20 6 2 3 -11
11 -23 18 -27 7 -4 18 -29 24 -55 7 -27 22 -82 33 -123 12 -41 22 -109 24
-151 2 -43 15 -134 29 -204 14 -70 25 -142 25 -162 0 -19 9 -78 20 -131 10
-54 26 -135 34 -182 27 -148 75 -376 86 -405 6 -16 15 -79 19 -141 5 -62 12
-117 15 -123 5 -8 127 -11 405 -11 l398 0 16 108 c8 59 30 193 47 297 28 172
50 310 125 780 13 83 44 276 69 430 25 154 50 325 56 380 6 55 15 111 20 125
9 22 34 176 74 450 8 52 19 142 25 200 5 58 17 119 25 135 8 17 22 93 31 170
8 77 20 151 25 165 13 35 39 218 45 325 3 50 12 131 20 180 8 50 20 124 25
165 6 41 24 131 40 200 17 69 30 148 30 175 0 28 9 85 20 129 11 43 20 82 20
86 0 4 -178 6 -395 5 -345 -1 -397 -3 -411 -17 -13 -12 -17 -44 -19 -149 -1
-74 -7 -152 -13 -174 -23 -88 -43 -239 -55 -415 -3 -41 -15 -111 -26 -155 -12
-47 -21 -113 -21 -159 0 -60 -4 -84 -17 -98 -14 -15 -18 -53 -25 -214 -8 -170
-11 -200 -28 -223 -17 -22 -22 -53 -30 -196 -10 -179 -17 -232 -32 -252 -5 -6
-18 -81 -28 -165 -43 -366 -73 -584 -81 -605 -9 -24 -33 -31 -45 -12 -7 11
-77 451 -119 749 -14 96 -32 187 -40 202 -8 14 -15 46 -15 70 -1 82 -27 270
-39 278 -10 6 -29 175 -31 273 0 16 -24 17 -360 17 -280 0 -361 -3 -364 -12
-13 -42 -326 -1488 -326 -1505 0 -54 -24 -68 -55 -33 -16 18 -31 131 -101 753
-46 403 -91 806 -100 897 -9 91 -22 179 -29 195 -7 17 -16 93 -20 170 -3 77
-13 183 -20 235 -22 139 -34 248 -48 405 l-12 140 -170 0 c-93 0 -190 -1 -215
-3 -25 -1 -125 1 -222 4 -160 6 -178 5 -184 -10z"/>
<path d="M11275 5289 c-55 -4 -229 -5 -387 -2 l-288 6 -1 -54 c0 -30 0 -526 0
-1104 0 -577 1 -1566 1 -2198 l0 -1147 373 2 372 3 3 1363 c2 1335 2 1362 21
1362 13 0 23 -11 32 -37 6 -20 20 -50 30 -67 36 -62 60 -142 80 -260 11 -67
27 -131 34 -142 8 -12 23 -64 35 -115 12 -52 30 -124 41 -160 11 -37 39 -148
64 -248 25 -99 59 -210 76 -245 30 -63 32 -65 77 -72 25 -4 153 -4 285 -2 195
5 242 8 254 21 8 8 24 62 34 120 10 58 37 159 59 224 21 65 62 215 91 333 28
118 69 268 90 332 21 64 46 160 56 213 10 57 20 90 25 83 5 -9 8 -8 8 5 0 9 4
17 9 17 5 0 9 -589 10 -1357 1 -747 6 -1361 10 -1366 4 -4 177 -6 384 -5 l377
3 0 2244 c0 1778 -3 2247 -13 2253 -6 5 -100 6 -207 2 -259 -8 -305 -7 -437 1
-152 10 -195 3 -238 -42 -20 -20 -40 -55 -46 -77 -6 -23 -24 -86 -40 -141 -16
-55 -29 -107 -29 -115 0 -9 -20 -86 -45 -173 -25 -86 -52 -188 -60 -227 -8
-38 -26 -98 -41 -131 -30 -73 -66 -195 -94 -317 -10 -48 -49 -175 -85 -282
-88 -258 -105 -318 -105 -359 0 -30 -2 -33 -13 -21 -25 28 -102 258 -138 410
-12 52 -36 138 -54 190 -18 52 -45 142 -59 200 -15 58 -31 116 -36 130 -21 61
-62 206 -94 335 -20 77 -54 192 -77 255 -46 129 -99 304 -99 329 0 43 -33 47
-245 30z"/>
<path d="M23538 4901 c-7 -970 -9 -3372 -2 -3724 l7 -387 971 2 971 3 109 39
c218 78 491 241 634 380 82 79 242 312 302 440 59 125 137 352 190 556 31 122
42 186 50 300 6 80 15 206 20 280 21 294 22 362 6 460 -9 52 -16 149 -16 215
0 66 -5 152 -10 190 -21 147 -128 520 -200 696 -15 37 -48 96 -73 132 -63 88
-159 233 -191 288 -32 56 -128 149 -181 177 -22 11 -74 50 -115 86 -88 77
-216 144 -405 213 l-130 48 -967 1 -967 1 -3 -396z m1512 -271 c91 -18 306
-79 355 -100 102 -45 212 -117 275 -180 58 -57 75 -85 149 -235 88 -180 116
-251 132 -343 6 -31 17 -76 25 -100 10 -29 16 -115 21 -268 3 -124 10 -227 15
-230 11 -7 10 -251 -1 -258 -5 -3 -12 -115 -15 -248 -10 -335 -26 -425 -94
-548 -11 -19 -48 -92 -83 -162 -109 -219 -147 -261 -318 -351 -117 -62 -200
-92 -365 -133 l-140 -34 -300 0 c-166 0 -325 3 -353 6 l-53 7 -2 1593 -3 1594
355 -1 c195 0 375 -4 400 -9z"/>
<path d="M30745 5292 c-3 -3 -642 -5 -1420 -3 -1405 2 -1414 2 -1424 -18 -8
-14 -10 -678 -9 -2248 l3 -2228 1480 0 1480 0 3 322 2 323 -1018 0 c-561 0
-1053 3 -1095 6 l-77 7 0 648 0 649 855 0 854 0 3 318 c2 174 1 321 -1 326 -2
5 -334 7 -765 5 -418 -3 -803 -3 -853 -1 l-93 3 0 620 0 619 1095 0 1095 0 -2
328 -3 327 -52 1 c-29 1 -55 -1 -58 -4z"/>
<path d="M31968 5293 c-60 -2 -108 -6 -108 -10 0 -3 15 -51 34 -107 49 -144
82 -252 96 -316 7 -30 23 -77 35 -105 12 -27 27 -71 34 -98 6 -26 19 -66 30
-90 10 -23 37 -96 59 -162 39 -114 50 -154 107 -370 13 -49 82 -265 153 -480
72 -214 137 -417 146 -450 33 -124 47 -169 159 -520 63 -198 129 -409 146
-470 18 -60 76 -245 131 -410 110 -333 160 -502 185 -621 19 -93 80 -257 102
-276 13 -10 107 -13 446 -13 l430 0 13 60 c14 65 38 142 137 430 120 354 186
560 222 698 19 75 58 203 86 285 105 307 179 541 208 657 17 66 86 289 155
495 68 206 129 400 136 430 15 71 117 390 240 755 54 160 105 328 115 373 9
46 25 109 36 140 11 32 22 82 26 113 l6 56 -34 7 c-49 10 -686 7 -713 -4 -30
-11 -64 -92 -121 -295 -25 -88 -68 -227 -95 -310 -27 -82 -57 -181 -65 -220
-9 -38 -41 -144 -72 -235 -31 -91 -63 -199 -73 -240 -9 -41 -41 -151 -70 -245
-29 -93 -74 -246 -100 -340 -26 -93 -75 -253 -108 -355 -70 -214 -106 -336
-157 -545 -20 -82 -49 -180 -65 -216 -15 -36 -35 -99 -44 -140 -23 -105 -87
-264 -99 -244 -4 8 -12 13 -17 10 -10 -6 -30 54 -64 185 -22 88 -63 224 -137
455 -16 50 -38 128 -49 175 -11 47 -42 150 -70 230 -28 80 -68 213 -90 295
-49 188 -72 265 -149 488 -34 98 -79 246 -101 329 -22 83 -51 183 -64 222 -62
188 -87 270 -116 381 -35 136 -112 378 -142 444 -10 24 -22 72 -25 107 -7 79
-5 78 -185 69 -182 -9 -249 -9 -348 -3 -47 3 -133 3 -192 1z m1751 -3433 c0
-10 -3 -8 -9 5 -12 27 -12 43 0 25 5 -8 9 -22 9 -30z"/>
<path d="M1541 4238 c-14 -7 -32 -28 -42 -45 -22 -40 -43 -154 -35 -188 9 -37
61 -109 100 -139 44 -33 111 -36 149 -6 14 11 32 20 40 20 14 0 54 35 85 74
18 23 32 73 32 118 0 28 -9 47 -37 81 -65 76 -95 92 -187 95 -52 2 -90 -2
-105 -10z"/>
<path d="M12071 3444 c0 -11 3 -14 6 -6 3 7 2 16 -1 19 -3 4 -6 -2 -5 -13z"/>
<path d="M3690 2219 c-30 -3 -77 -15 -103 -27 -39 -18 -52 -30 -68 -67 -11
-24 -22 -73 -25 -107 -6 -59 -4 -66 26 -106 39 -54 87 -75 166 -75 116 1 149
16 197 93 21 32 28 132 12 175 -26 78 -110 125 -205 114z"/>
<path d="M20710 790 l-1615 -5 -3 -323 -2 -322 1624 0 1625 0 3 318 c2 202 -1
321 -7 327 -7 7 -555 8 -1625 5z"/>
</g>
</svg>
